<?xml version="1.0" encoding="UTF-8" standalone="no"?>
<!-- Created with Inkscape (http://www.inkscape.org/) -->

<svg
   xmlns:dc="http://purl.org/dc/elements/1.1/"
   xmlns:cc="http://creativecommons.org/ns#"
   xmlns:rdf="http://www.w3.org/1999/02/22-rdf-syntax-ns#"
   xmlns:svg="http://www.w3.org/2000/svg"
   xmlns="http://www.w3.org/2000/svg"
   xmlns:sodipodi="http://sodipodi.sourceforge.net/DTD/sodipodi-0.dtd"
   xmlns:inkscape="http://www.inkscape.org/namespaces/inkscape"
   width="59.331001"
   height="132.64999"
   viewBox="0 0 15.697994 35.096978"
   version="1.1"
   id="svg4416"
   sodipodi:docname="Semibiscroma.svg"
   inkscape:version="0.92.3 (2405546, 2018-03-11)">
  <defs
     id="defs4410" />
  <sodipodi:namedview
     id="base"
     pagecolor="#ffffff"
     bordercolor="#666666"
     borderopacity="1.0"
     inkscape:pageopacity="0.0"
     inkscape:pageshadow="2"
     inkscape:zoom="1.4"
     inkscape:cx="-41.28477"
     inkscape:cy="43.888322"
     inkscape:document-units="mm"
     inkscape:current-layer="layer1"
     showgrid="false"
     units="px"
     inkscape:window-width="1366"
     inkscape:window-height="700"
     inkscape:window-x="0"
     inkscape:window-y="0"
     inkscape:window-maximized="1" />
  <metadata
     id="metadata4413">
    <rdf:RDF>
      <cc:Work
         rdf:about="">
        <dc:format>image/svg+xml</dc:format>
        <dc:type
           rdf:resource="http://purl.org/dc/dcmitype/StillImage" />
        <dc:title />
      </cc:Work>
    </rdf:RDF>
  </metadata>
  <g
     inkscape:label="Livello 1"
     inkscape:groupmode="layer"
     id="layer1"
     transform="translate(0,-261.903)">
    <g
       id="g5166"
       transform="matrix(0.26458333,0,0,0.26458333,-309.33079,174.94051)">
      <polyline
         id="polyline66"
         points="1201.02,444.895 1201.02,361.417"
         class="Stem"
         style="fill:none;stroke:#000000;stroke-width:2.73000002;stroke-linejoin:bevel" />
      <path
         id="path92"
         d="M 31.5,-8.20313 C 30,-10.9063 27.1094,-12.5938 23.2031,-13 c -0.6093,-0.0938 -1.1093,-0.0938 -1.7031,-0.0938 -3.5,0 -7.2969,1 -10.7969,2.8907 C 4.09375,-6.59375 0,-0.703125 0,4.40625 c 0,1.39063 0.203125,2.6875 0.90625,3.89063 1.5,2.70312 4.5,4.40622 8.39063,4.79692 0.60937,0.1093 1.10942,0.1093 1.70312,0.1093 3.5,0 7.2031,-1 10.7031,-2.9062 C 28.2969,6.70313 32.5,0.90625 32.5,-4.20313 c 0,-1.39062 -0.2969,-2.79687 -1,-4"
         transform="matrix(0.992126,0,0,0.992126,1170.15,448.228)"
         class="Note"
         inkscape:connector-curvature="0" />
      <path
         id="path166"
         d="m 0.09375,37.7031 c 0,0.2032 0.8125,0.7969 1.5,1 2.60938,0.9063 10.50005,5.9063 16.50005,14.7969 3.7031,5.5 4.3125,9.1094 4.3125,12.7969 v 1 c -0.1094,2.5 -0.8125,7.6094 -2.2032,11.6094 -0.2968,0.9062 -0.7968,2.2031 0.2032,2.7031 1,0.5 1.5937,-0.5 2.0937,-1.2031 1.7969,-2.9063 4.2969,-8.2969 4.2969,-14 0,-2.9063 -0.1875,-5.2969 -0.5,-7.4063 C 27.2031,55.5 28,51.2969 28,46.9063 v -0.7969 c 0,-2.2031 -0.3906,-4.3125 -1,-6.4063 0.5,-2.7031 1,-5.7968 1,-9 V 29.7969 C 28,28 27.5,25.0938 27,23.4063 27.5,20.5938 28,17.5 28,14.2969 V 13.4063 C 27.9063,8.20313 26.7031,2.90625 23.2031,-1.59375 18.4063,-7.79688 12.0938,-10.0938 8.29688,-15.5938 4.5,-21.0938 2.90625,-31.7031 2.90625,-31.7031 2.79688,-32.4063 2.59375,-33 1.40625,-33 0.203125,-33 0,-32.4063 0,-31.7031 L 0.09375,37.7031 M 22.7969,31.5 C 18,25.2969 13.5938,22.7969 8,17.7031 4.59375,14.5938 4,10.2969 3.79688,8.79688 v 0.40625 c 4.5,0.39062 10.60942,4.89067 14.40622,9.49997 4.5,5.3907 5.3907,9.5938 5.3907,13.5 v 0.5938 C 23.2969,32.4063 23.0938,31.9063 22.7969,31.5 M 18.2031,2.29688 c 4.5,5.5 5.3907,9.60942 5.3907,13.50002 V 16.5 c -0.2969,-0.4062 -0.5,-0.7969 -0.7969,-1.2031 C 18,9.09375 13.7031,6.59375 8.09375,1.5 4.5,-1.79688 3.79688,-6.5 3.70313,-7.70313 l 0.20312,0.5 c 4.5,0.40625 10.50005,4.90625 14.29685,9.50001 M 21.0938,46.9063 C 18.4063,43.4063 15.2969,40.2031 10.4063,35.2969 6.5,31.5 4.70313,28 4,25.5 c 4.5,0.5 10.5,5 14.2031,9.5 4.5,5.4063 5.3907,9.5 5.3907,13.4063 0,0.7031 -0.0938,1.5 -0.0938,2.2031 C 22.9063,49.5 21.9063,47.9063 21.0938,46.9063"
         transform="matrix(0.992126,0,0,0.992126,1199.65,361.417)"
         class="Hook"
         inkscape:connector-curvature="0" />
    </g>
  </g>
</svg>
