<?xml version="1.0" encoding="UTF-8" standalone="no"?>
<svg
   xmlns:dc="http://purl.org/dc/elements/1.1/"
   xmlns:cc="http://creativecommons.org/ns#"
   xmlns:rdf="http://www.w3.org/1999/02/22-rdf-syntax-ns#"
   xmlns:svg="http://www.w3.org/2000/svg"
   xmlns="http://www.w3.org/2000/svg"
   xmlns:sodipodi="http://sodipodi.sourceforge.net/DTD/sodipodi-0.dtd"
   xmlns:inkscape="http://www.inkscape.org/namespaces/inkscape"
   version="1.2"
   width="3.782058mm"
   height="11.51382mm"
   viewBox="0 0 2.1521999 6.5519992"
   id="svg2"
   inkscape:version="0.91 r13725"
   sodipodi:docname="quintuple-croche tête en bas.svg">
  <metadata
     id="metadata130">
    <rdf:RDF>
      <cc:Work
         rdf:about="">
        <dc:format>image/svg+xml</dc:format>
        <dc:type
           rdf:resource="http://purl.org/dc/dcmitype/StillImage" />
        <dc:title></dc:title>
        <cc:license
           rdf:resource="https://creativecommons.org/publicdomain/mark/1.0/" />
      </cc:Work>
      <cc:License
         rdf:about="https://creativecommons.org/publicdomain/mark/1.0/">
        <cc:permits
           rdf:resource="http://creativecommons.org/ns#Reproduction" />
        <cc:permits
           rdf:resource="http://creativecommons.org/ns#Distribution" />
        <cc:permits
           rdf:resource="http://creativecommons.org/ns#DerivativeWorks" />
      </cc:License>
    </rdf:RDF>
  </metadata>
  <defs
     id="defs128" />
  <sodipodi:namedview
     pagecolor="#ffffff"
     bordercolor="#666666"
     borderopacity="1"
     objecttolerance="10"
     gridtolerance="10"
     guidetolerance="10"
     inkscape:pageopacity="0"
     inkscape:pageshadow="2"
     inkscape:window-width="1920"
     inkscape:window-height="1018"
     id="namedview126"
     showgrid="false"
     fit-margin-top="0"
     fit-margin-left="0"
     fit-margin-right="0"
     fit-margin-bottom="0"
     inkscape:zoom="0.63429568"
     inkscape:cx="-586.34208"
     inkscape:cy="-63.650458"
     inkscape:window-x="-8"
     inkscape:window-y="-8"
     inkscape:window-maximized="1"
     inkscape:current-layer="svg2" />
  <!-- Page: 1/1 -->
  <path
     transform="matrix(0.004,0,0,-0.004,1.3161975,0.03999966)"
     d="m 0,-212 0,-20 c 0,-111 84,-194 144,-285 4,15 6,30 6,46 0,94 -85,190 -150,259 z M 0,0 c 0,-176 193,-295 193,-471 0,-33 -7,-66 -19,-97 17,-35 29,-72 29,-113 0,-42 -11,-82 -29,-120 17,-35 29,-71 29,-112 0,-42 -11,-82 -29,-120 17,-35 29,-72 29,-113 0,-36 -14,-70 -35,-99 24,-41 41,-84 41,-133 0,-61 -16,-120 -42,-175 -5,-8 -12,-11 -19,-11 -13,0 -26,11 -23,27 26,49 42,103 42,159 0,92 -95,177 -167,236 l 0,-108 -16,0 0,1250 16,0 z m 0,-445 0,-20 c 0,-112 87,-196 147,-289 9,23 13,48 13,73 0,91 -91,176 -160,236 z m 0,-232 0,-20 c 0,-112 87,-196 147,-289 9,23 13,48 13,73 0,91 -91,176 -160,236 z m 0,-233 0,-20 c 0,-108 82,-189 143,-277 11,18 17,39 17,61 0,91 -91,176 -160,236 z"
     id="path44"
     inkscape:connector-curvature="0"
     style="fill:currentColor" />
  <rect
     transform="translate(1.2511975,4.4999997)"
     x="-0.064999998"
     y="-4.5"
     width="0.13"
     height="5.8122001"
     ry="0.039999999"
     id="rect46"
     style="fill:currentColor" />
  <a
     id="a48"
     transform="translate(-111.6371,-3.8453003)">
    <path
       transform="matrix(0.004,0,0,-0.004,111.6371,9.8453)"
       d="m 220,138 c 56,0 109,-29 109,-91 0,-72 -56,-121 -103,-149 -36,-21 -76,-36 -117,-36 -56,0 -109,29 -109,91 0,72 56,121 103,149 36,21 76,36 117,36 z"
       id="path50"
       inkscape:connector-curvature="0"
       style="fill:currentColor" />
  </a>
</svg>
