<?xml version="1.0" encoding="UTF-8" standalone="no"?>
<!-- Created with Inkscape (http://www.inkscape.org/) -->

<svg
   xmlns:dc="http://purl.org/dc/elements/1.1/"
   xmlns:cc="http://creativecommons.org/ns#"
   xmlns:rdf="http://www.w3.org/1999/02/22-rdf-syntax-ns#"
   xmlns:svg="http://www.w3.org/2000/svg"
   xmlns="http://www.w3.org/2000/svg"
   xmlns:sodipodi="http://sodipodi.sourceforge.net/DTD/sodipodi-0.dtd"
   xmlns:inkscape="http://www.inkscape.org/namespaces/inkscape"
   width="15.697994mm"
   height="30.372mm"
   viewBox="0 0 15.697994 30.372"
   version="1.1"
   id="svg4416"
   sodipodi:docname="Biscroma.svg"
   inkscape:version="0.92.3 (2405546, 2018-03-11)">
  <defs
     id="defs4410" />
  <sodipodi:namedview
     id="base"
     pagecolor="#ffffff"
     bordercolor="#666666"
     borderopacity="1.0"
     inkscape:pageopacity="0.0"
     inkscape:pageshadow="2"
     inkscape:zoom="0.98994949"
     inkscape:cx="-177.30411"
     inkscape:cy="-51.628377"
     inkscape:document-units="mm"
     inkscape:current-layer="layer1"
     showgrid="false"
     units="mm"
     inkscape:window-width="1366"
     inkscape:window-height="700"
     inkscape:window-x="0"
     inkscape:window-y="0"
     inkscape:window-maximized="1" />
  <metadata
     id="metadata4413">
    <rdf:RDF>
      <cc:Work
         rdf:about="">
        <dc:format>image/svg+xml</dc:format>
        <dc:type
           rdf:resource="http://purl.org/dc/dcmitype/StillImage" />
        <dc:title></dc:title>
      </cc:Work>
    </rdf:RDF>
  </metadata>
  <g
     inkscape:label="Livello 1"
     inkscape:groupmode="layer"
     id="layer1"
     transform="translate(0,-266.62798)">
    <g
       id="g5161"
       transform="matrix(0.26458333,0,0,0.26458333,-292.14213,174.94051)">
      <polyline
         id="polyline64"
         points="1136.05,444.895 1136.05,361.417"
         class="Stem"
         style="fill:none;stroke:#000000;stroke-width:2.73000002;stroke-linejoin:bevel" />
      <path
         id="path90"
         d="M 31.5,-8.20313 C 30,-10.9063 27.1094,-12.5938 23.2031,-13 c -0.6093,-0.0938 -1.1093,-0.0938 -1.7031,-0.0938 -3.5,0 -7.2969,1 -10.7969,2.8907 C 4.09375,-6.59375 0,-0.703125 0,4.40625 c 0,1.39063 0.203125,2.6875 0.90625,3.89063 1.5,2.70312 4.5,4.40622 8.39063,4.79692 0.60937,0.1093 1.10942,0.1093 1.70312,0.1093 3.5,0 7.2031,-1 10.7031,-2.9062 C 28.2969,6.70313 32.5,0.90625 32.5,-4.20313 c 0,-1.39062 -0.2969,-2.79687 -1,-4"
         transform="matrix(0.992126,0,0,0.992126,1105.18,448.228)"
         class="Note"
         inkscape:connector-curvature="0" />
      <path
         id="path164"
         d="m 28,46.1094 c 0,-1.6094 -0.3906,-4.2031 -0.7969,-5.8125 0.4063,-3 0.7969,-6.1875 0.7969,-9 v -1 C 27.9063,25.0938 26.7031,19.7031 23.2031,15.2031 18.4063,9 12.0938,5.90625 8.29688,0.40625 4.5,-5.09375 2.90625,-13.7031 2.90625,-13.7031 2.79688,-14.4063 2.59375,-15 1.40625,-15 0.203125,-15 0,-14.4063 0,-13.7031 V 2.20313 8 8.09375 14.2969 16 v 5.7969 11 4.9062 c 0,0.2032 0.703125,0.7032 1.40625,0.9063 2.59375,1 10.50005,6 16.50005,14.8906 3.5937,5.5 4.1875,9.1094 4.1875,12.7031 v 1.0938 c -0.0938,2.5 -0.6875,7.6094 -2.1875,11.6094 -0.3125,0.9062 -0.8125,2.2031 0.1875,2.7031 1,0.5 1.6093,-0.5 2.1093,-1.2031 1.7969,-2.9063 4.4063,-8.2969 4.4063,-14 V 66.1094 C 26.6094,64.2969 26.5,61.2969 26.2031,59.5 27.1094,55.9063 28,51.5 28,46.9063 V 46.1094 M 18.2031,19.2031 c 4.5,5.5 5.3907,9.5938 5.3907,13.5 C 23.2969,32.2969 23.0938,32 22.7969,31.6094 18,25.4063 13.7031,22.9063 8.09375,17.7969 5.20313,15.0938 4.20313,11.5938 3.90625,9.70313 c 4.5,0.39067 10.50005,4.89067 14.29685,9.49997 m 2.7032,27.7032 c -2.7032,-3.5 -5.6094,-6.7969 -10.5,-11.7032 C 6.59375,31.4063 4.70313,28.1094 4,25.6094 c 4.5,0.5 10.4063,4.7969 14.2031,9.3906 4.5,5.4063 5.3907,9.6094 5.3907,13.5 0,0.7969 0,1.5 -0.0938,2.2969 -0.5937,-1.1875 -1.7969,-2.8906 -2.5937,-3.8906"
         transform="matrix(0.992126,0,0,0.992126,1134.69,361.417)"
         class="Hook"
         inkscape:connector-curvature="0" />
    </g>
  </g>
</svg>
