<?xml version="1.0" encoding="UTF-8" standalone="no"?>
<!-- Created with Inkscape (http://www.inkscape.org/) -->

<svg
   xmlns:dc="http://purl.org/dc/elements/1.1/"
   xmlns:cc="http://creativecommons.org/ns#"
   xmlns:rdf="http://www.w3.org/1999/02/22-rdf-syntax-ns#"
   xmlns:svg="http://www.w3.org/2000/svg"
   xmlns="http://www.w3.org/2000/svg"
   xmlns:sodipodi="http://sodipodi.sourceforge.net/DTD/sodipodi-0.dtd"
   xmlns:inkscape="http://www.inkscape.org/namespaces/inkscape"
   version="1.0"
   width="44"
   height="41.65385055542"
   id="svg2"
   sodipodi:version="0.32"
   inkscape:version="0.48.2 r9819"
   sodipodi:docname="Semiquaver on stave.svg"
   inkscape:output_extension="org.inkscape.output.svg.inkscape">
  <title
     id="title3065">Demisemiquaver on stave</title>
  <metadata
     id="metadata56">
    <rdf:RDF>
      <cc:Work
         rdf:about="">
        <dc:format>image/svg+xml</dc:format>
        <dc:type
           rdf:resource="http://purl.org/dc/dcmitype/StillImage" />
        <dc:title>Demisemiquaver on stave</dc:title>
      </cc:Work>
    </rdf:RDF>
  </metadata>
  <sodipodi:namedview
     inkscape:window-height="781"
     inkscape:window-width="1280"
     inkscape:pageshadow="2"
     inkscape:pageopacity="0.0"
     guidetolerance="10.0"
     gridtolerance="10.0"
     objecttolerance="10.0"
     borderopacity="1.0"
     bordercolor="#666666"
     pagecolor="#ffffff"
     id="base"
     showgrid="false"
     inkscape:zoom="1.3292869"
     inkscape:cx="396.9395685654"
     inkscape:cy="-76.32539159588"
     inkscape:window-x="-4"
     inkscape:window-y="-4"
     inkscape:current-layer="svg2"
     fit-margin-top="2"
     fit-margin-left="2"
     fit-margin-right="2"
     fit-margin-bottom="2"
     inkscape:window-maximized="1" />
  <g
     id="g92"
     style="fill:#000000;fill-rule:evenodd;stroke:#000000;stroke-width:0;stroke-linecap:butt;stroke-linejoin:round;stroke-miterlimit:10"
     transform="matrix(1.8,0,0,1.8,-974.6138637028,-120.6361499969)">
    <path
       id="path94"
       style="fill:#000000;stroke:#000000"
       d="m 553.789,69.863 c -0.516,0.101 -0.918,0.461 -1.094,0.957 -0.043,0.16 -0.043,0.199 -0.043,0.418 0,0.218 0,0.3 0.043,0.418 0.137,0.441 0.418,0.777 0.856,0.976 0.297,0.16 0.437,0.18 0.855,0.18 0.52,0 0.957,-0.078 1.657,-0.297 0.179,-0.063 0.316,-0.102 0.316,-0.102 0.019,0 -0.16,0.7 -0.399,1.536 -0.296,1.175 -0.417,1.554 -0.457,1.671 -0.16,0.301 -0.5,0.758 -0.718,0.957 -0.2,0.18 -0.317,0.219 -0.516,0.141 -0.18,-0.098 -0.242,-0.199 -0.359,-0.738 -0.102,-0.399 -0.18,-0.617 -0.34,-0.778 -0.418,-0.457 -1.137,-0.515 -1.692,-0.156 -0.261,0.176 -0.46,0.457 -0.578,0.754 -0.043,0.16 -0.043,0.199 -0.043,0.418 0,0.301 0.024,0.461 0.161,0.699 0.199,0.399 0.617,0.719 1.097,0.836 0.219,0.063 0.778,0.063 1.156,0 0.317,-0.058 0.696,-0.16 1.075,-0.277 0.179,-0.059 0.32,-0.102 0.32,-0.102 0,0.02 -0.797,3.051 -0.84,3.11 -0.156,0.34 -0.476,0.758 -0.715,0.996 -0.258,0.258 -0.398,0.301 -0.617,0.219 -0.18,-0.098 -0.242,-0.2 -0.359,-0.739 -0.102,-0.398 -0.18,-0.617 -0.34,-0.773 -0.418,-0.461 -1.137,-0.52 -1.692,-0.16 -0.261,0.179 -0.46,0.457 -0.578,0.758 -0.043,0.156 -0.043,0.199 -0.043,0.417 0,0.219 0,0.297 0.043,0.418 0.137,0.438 0.418,0.778 0.856,0.977 0.32,0.16 0.437,0.18 0.875,0.18 0.32,0 0.422,0 0.679,-0.043 0.36,-0.059 0.739,-0.176 1.157,-0.297 l 0.258,-0.102 0,0.063 c -0.02,0.078 -1.696,6.375 -1.715,6.414 -0.02,0.082 0.34,0.238 0.558,0.238 0.219,0 0.539,-0.137 0.559,-0.238 0.019,-0.02 0.976,-4.145 2.172,-9.164 2.133,-9.086 2.133,-9.106 2.094,-9.168 -0.063,-0.078 -0.161,-0.117 -0.282,-0.117 -0.14,0.019 -0.199,0.078 -0.34,0.316 -0.277,0.481 -0.597,0.898 -0.773,1.039 -0.121,0.078 -0.223,0.078 -0.379,0.02 -0.18,-0.102 -0.242,-0.2 -0.359,-0.739 -0.121,-0.539 -0.262,-0.777 -0.559,-0.976 -0.277,-0.18 -0.637,-0.238 -0.957,-0.16 z"
       inkscape:connector-curvature="0" />
  </g>
  <defs
     id="defs19">
    <inkscape:perspective
       sodipodi:type="inkscape:persp3d"
       inkscape:vp_x="0 : 30.096807 : 1"
       inkscape:vp_y="0 : 1000 : 0"
       inkscape:vp_z="574.5 : 30.096807 : 1"
       inkscape:persp3d-origin="287.25 : 20.064538 : 1"
       id="perspective58" />
    <inkscape:perspective
       id="perspective2543"
       inkscape:persp3d-origin="372.04724 : 350.78739 : 1"
       inkscape:vp_z="744.09448 : 526.18109 : 1"
       inkscape:vp_y="0 : 1000 : 0"
       inkscape:vp_x="0 : 526.18109 : 1"
       sodipodi:type="inkscape:persp3d" />
  </defs>
  <path
     id="path62"
     style="stroke:#000000;stroke-width:0.2378894687;stroke-miterlimit:4;stroke-dasharray:none"
     d="m 2.118944734335,38.76431727188 39.762110537545,0"
     inkscape:connector-curvature="0" />
  <path
     id="path66"
     style="stroke:#000000;stroke-width:0.2378894687;stroke-miterlimit:4;stroke-dasharray:none"
     d="m 2.118944734335,29.60297464812 39.762110537545,0"
     inkscape:connector-curvature="0" />
  <path
     id="path70"
     style="stroke:#000000;stroke-width:0.2378894687;stroke-miterlimit:4;stroke-dasharray:none"
     d="m 2.118944734335,20.44163100311 39.762110537545,0"
     inkscape:connector-curvature="0" />
  <path
     id="path74"
     style="stroke:#000000;stroke-width:0.2378894687;stroke-miterlimit:4;stroke-dasharray:none"
     d="m 2.118944734335,11.28028797084 39.762110537545,0"
     inkscape:connector-curvature="0" />
  <path
     id="path78"
     style="stroke:#000000;stroke-width:0.2378894687;stroke-miterlimit:4;stroke-dasharray:none"
     d="m 2.118944734335,2.118944734335 39.762110537545,0"
     inkscape:connector-curvature="0" />
</svg>
