<?xml version="1.0" encoding="UTF-8" standalone="no"?>
<!-- Created with Inkscape (http://www.inkscape.org/) -->

<svg
   xmlns:dc="http://purl.org/dc/elements/1.1/"
   xmlns:cc="http://creativecommons.org/ns#"
   xmlns:rdf="http://www.w3.org/1999/02/22-rdf-syntax-ns#"
   xmlns:svg="http://www.w3.org/2000/svg"
   xmlns="http://www.w3.org/2000/svg"
   xmlns:sodipodi="http://sodipodi.sourceforge.net/DTD/sodipodi-0.dtd"
   xmlns:inkscape="http://www.inkscape.org/namespaces/inkscape"
   version="1.0"
   width="44"
   height="49.65257263184"
   id="svg2"
   sodipodi:version="0.32"
   inkscape:version="0.48.2 r9819"
   sodipodi:docname="Demisemiquaver on stave.svg"
   inkscape:output_extension="org.inkscape.output.svg.inkscape">
  <title
     id="title3065">Hemidemisemiquaver on stave</title>
  <metadata
     id="metadata56">
    <rdf:RDF>
      <cc:Work
         rdf:about="">
        <dc:format>image/svg+xml</dc:format>
        <dc:type
           rdf:resource="http://purl.org/dc/dcmitype/StillImage" />
        <dc:title>Hemidemisemiquaver on stave</dc:title>
      </cc:Work>
    </rdf:RDF>
  </metadata>
  <sodipodi:namedview
     inkscape:window-height="781"
     inkscape:window-width="1280"
     inkscape:pageshadow="2"
     inkscape:pageopacity="0.0"
     guidetolerance="10.0"
     gridtolerance="10.0"
     objecttolerance="10.0"
     borderopacity="1.0"
     bordercolor="#666666"
     pagecolor="#ffffff"
     id="base"
     showgrid="false"
     inkscape:zoom="1.3292869"
     inkscape:cx="398.9395685685"
     inkscape:cy="-107.9154887477"
     inkscape:window-x="-4"
     inkscape:window-y="-4"
     inkscape:current-layer="svg2"
     fit-margin-top="2"
     fit-margin-left="2"
     fit-margin-right="2"
     fit-margin-bottom="2"
     inkscape:window-maximized="1" />
  <path
     id="path110"
     style="fill:#000000;fill-rule:evenodd;stroke:#000000;stroke-width:0;stroke-linecap:butt;stroke-linejoin:round;stroke-miterlimit:10"
     d="m 22.9863844066,4.142971203108 c -0.9342,0.1818 -1.6524,0.8298 -1.9692,1.7226 -0.0774,0.288 -0.0774,0.3582 -0.0774,0.7524 0,0.3924 0,0.54 0.0774,0.7524 0.2466,0.7938 0.7524,1.3986 1.5408,1.7568 0.5688,0.288 0.7866,0.324 1.575,0.324 0.5418,0 0.7524,0 1.188,-0.0702 0.5688,-0.1062 1.3572,-0.324 1.9692,-0.5346 l 0.3942,-0.1476 -0.036,0.1476 c -0.0342,0.0702 -0.288,1.321200000002 -0.612,2.755800000002 -0.5688,2.5109998 -0.6048,2.6585998 -0.7866,2.9807998 -0.3942,0.8226 -0.963,1.611 -1.3644,1.8648 -0.2106,0.1404 -0.3942,0.1404 -0.6408,0.0342 -0.3222,-0.1764 -0.4356,-0.3582 -0.6462,-1.3284 -0.1836,-0.7182 -0.324,-1.1106 -0.612,-1.4004 -0.7524,-0.8226 -2.0466,-0.927 -3.051,-0.2808 -0.4644,0.3168 -0.8226,0.8226 -1.0332,1.3572 -0.0774,0.288 -0.0774,0.3582 -0.0774,0.7524 0,0.5418 0.0342,0.8298 0.288,1.2582 0.3582,0.7182 1.1106,1.2942 1.9764,1.5048 0.3924,0.1134 1.3986,0.1134 2.0808,0 0.5688,-0.1044 1.251,-0.288 1.9332,-0.4986 0.324,-0.1062 0.5418,-0.1836 0.576,-0.1836 0,0.036 -1.2222,5.4216 -1.2924,5.598 -0.2196,0.4644 -0.7884,1.3644 -1.2168,1.827 -0.4716,0.4302 -0.6822,0.5076 -1.0764,0.36 -0.324,-0.1764 -0.4356,-0.36 -0.6462,-1.3302 -0.1836,-0.7164 -0.324,-1.1106 -0.612,-1.3914 -0.7524,-0.8298 -2.0466,-0.936 -3.051,-0.288 -0.4644,0.3222 -0.8226,0.8226 -1.0422,1.3644 -0.0702,0.2808 -0.0702,0.3582 -0.0702,0.7506 0,0.5346 0.036,0.8244 0.2898,1.2528 0.3582,0.7164 1.1106,1.2942 1.9746,1.5048 0.9288,0.252 2.475,0.0414 4.2336,-0.5346 0.2448,-0.1062 0.4986,-0.1836 0.4986,-0.1836 0,0.0432 -0.288,1.224 -0.612,2.6928 -0.5346,2.511 -0.5688,2.6928 -0.7524,3.0096 -0.288,0.612 -0.927,1.4778 -1.3644,1.8702 -0.3582,0.324 -0.603,0.3942 -0.963,0.2466 -0.3222,-0.1764 -0.4356,-0.3582 -0.6462,-1.3212 -0.1836,-0.7182 -0.324,-1.1124 -0.612,-1.4004 -0.7524,-0.8298 -2.0466,-0.9342 -3.051,-0.288 -0.4644,0.324 -0.8226,0.8226 -1.0332,1.3644 -0.0774,0.288 -0.0774,0.3582 -0.0774,0.7524 0,0.5346 0.0342,0.8226 0.288,1.251 0.3582,0.7182 1.1106,1.2942 1.9746,1.512 0.9288,0.2466 2.7216,0 4.4802,-0.612 0.2178,-0.0702 0.3582,-0.1044 0.3582,-0.1044 0,0.0342 -2.511,11.2914 -2.6154,11.6496 0,0.0774 0.0342,0.1134 0.1746,0.1836 0.2196,0.1404 0.5778,0.2538 0.8298,0.2538 0.2466,0 0.6048,-0.1134 0.8226,-0.2538 0.1476,-0.0702 0.1836,-0.1062 0.2196,-0.288 0,-0.1062 1.8972,-9.5418 4.2318,-20.9826 3.6918,-18.435599800002 4.1562,-20.797199800002 4.1202,-20.874599800002 -0.1044,-0.1764 -0.2466,-0.2466 -0.4644,-0.2466 -0.3222,0 -0.3924,0.0702 -0.7164,0.6822 -0.4644,0.8928 -0.936,1.539 -1.2582,1.7928 -0.1764,0.1404 -0.36,0.1404 -0.6408,0.036 -0.3222,-0.1836 -0.4356,-0.36 -0.6462,-1.3302 -0.2178,-0.9702 -0.4716,-1.3986 -1.0062,-1.7568 -0.5058,-0.324 -1.1448,-0.4284 -1.7226,-0.288 z"
     inkscape:connector-curvature="0" />
  <defs
     id="defs19">
    <inkscape:perspective
       sodipodi:type="inkscape:persp3d"
       inkscape:vp_x="0 : 30.096807 : 1"
       inkscape:vp_y="0 : 1000 : 0"
       inkscape:vp_z="574.5 : 30.096807 : 1"
       inkscape:persp3d-origin="287.25 : 20.064538 : 1"
       id="perspective58" />
    <inkscape:perspective
       id="perspective2543"
       inkscape:persp3d-origin="372.04724 : 350.78739 : 1"
       inkscape:vp_z="744.09448 : 526.18109 : 1"
       inkscape:vp_y="0 : 1000 : 0"
       inkscape:vp_x="0 : 526.18109 : 1"
       sodipodi:type="inkscape:persp3d" />
  </defs>
  <path
     id="path62"
     style="stroke:#000000;stroke-width:0.2378894687;stroke-miterlimit:4;stroke-dasharray:none"
     d="m 2.118944734335,38.76431727188 39.762110537545,0"
     inkscape:connector-curvature="0" />
  <path
     id="path66"
     style="stroke:#000000;stroke-width:0.2378894687;stroke-miterlimit:4;stroke-dasharray:none"
     d="m 2.118944734335,29.60297464812 39.762110537545,0"
     inkscape:connector-curvature="0" />
  <path
     id="path70"
     style="stroke:#000000;stroke-width:0.2378894687;stroke-miterlimit:4;stroke-dasharray:none"
     d="m 2.118944734335,20.44163100311 39.762110537545,0"
     inkscape:connector-curvature="0" />
  <path
     id="path74"
     style="stroke:#000000;stroke-width:0.2378894687;stroke-miterlimit:4;stroke-dasharray:none"
     d="m 2.118944734335,11.28028797084 39.762110537545,0"
     inkscape:connector-curvature="0" />
  <path
     id="path78"
     style="stroke:#000000;stroke-width:0.2378894687;stroke-miterlimit:4;stroke-dasharray:none"
     d="m 2.118944734335,2.118944734335 39.762110537545,0"
     inkscape:connector-curvature="0" />
</svg>
