<?xml version="1.0" encoding="UTF-8" standalone="no"?>
<!-- Created with Inkscape (http://www.inkscape.org/) -->

<svg
   xmlns:dc="http://purl.org/dc/elements/1.1/"
   xmlns:cc="http://creativecommons.org/ns#"
   xmlns:rdf="http://www.w3.org/1999/02/22-rdf-syntax-ns#"
   xmlns:svg="http://www.w3.org/2000/svg"
   xmlns="http://www.w3.org/2000/svg"
   xmlns:sodipodi="http://sodipodi.sourceforge.net/DTD/sodipodi-0.dtd"
   xmlns:inkscape="http://www.inkscape.org/namespaces/inkscape"
   width="59.331001"
   height="93.709"
   viewBox="0 0 15.697994 24.79384"
   version="1.1"
   id="svg4416"
   sodipodi:docname="Minima.svg"
   inkscape:version="0.92.3 (2405546, 2018-03-11)">
  <defs
     id="defs4410" />
  <sodipodi:namedview
     id="base"
     pagecolor="#ffffff"
     bordercolor="#666666"
     borderopacity="1.0"
     inkscape:pageopacity="0.0"
     inkscape:pageshadow="2"
     inkscape:zoom="0.35"
     inkscape:cx="-619.28458"
     inkscape:cy="-63.367033"
     inkscape:document-units="mm"
     inkscape:current-layer="layer1"
     showgrid="false"
     units="px"
     inkscape:window-width="1366"
     inkscape:window-height="700"
     inkscape:window-x="0"
     inkscape:window-y="0"
     inkscape:window-maximized="1" />
  <metadata
     id="metadata4413">
    <rdf:RDF>
      <cc:Work
         rdf:about="">
        <dc:format>image/svg+xml</dc:format>
        <dc:type
           rdf:resource="http://purl.org/dc/dcmitype/StillImage" />
        <dc:title></dc:title>
      </cc:Work>
    </rdf:RDF>
  </metadata>
  <g
     inkscape:label="Livello 1"
     inkscape:groupmode="layer"
     id="layer1"
     transform="translate(0,-272.20614)">
    <g
       id="g5142"
       transform="matrix(0.26458333,0,0,0.26458333,-195.45923,174.94051)">
      <polyline
         id="polyline56"
         points="783.159,444.815 783.159,367.618"
         class="Stem"
         style="fill:none;stroke:#000000;stroke-width:2.73000002;stroke-linejoin:bevel" />
      <path
         id="path82"
         d="M 31.5,-8.20313 C 30,-10.9063 27.1094,-12.5938 23.2031,-13 c -0.6093,-0.0938 -1.1093,-0.0938 -1.7031,-0.0938 -3.5,0 -7.2969,1 -10.7969,2.8907 C 4.09375,-6.59375 0,-0.796875 0,4.29688 c 0,1.40625 0.40625,2.79687 1.09375,4 1.5,2.79692 4.3125,4.40622 8.20313,4.79692 0.60937,0.1093 1.10942,0.1093 1.70312,0.1093 3.5,0 7.2969,-1 10.7969,-2.9062 C 28.4063,6.70313 32.5,0.796875 32.5,-4.29688 32.5,-5.70313 32.2031,-7 31.5,-8.20313 m -4.2031,6.29688 c -1.6875,1.8125 -4.8906,4.10938 -8.5,6.20313 C 15.2031,6.40625 11.5,8.09375 9.20313,8.79688 8.70313,8.90625 8.09375,9 7.59375,9 6.09375,9 4.79688,8.29688 4.09375,7.20313 3.79688,6.59375 3.59375,6 3.59375,5.40625 3.59375,4.29688 4.09375,3.20313 5.20313,2 6.90625,0.203125 10.0938,-2.20313 13.7031,-4.29688 17.2969,-6.40625 21,-8.09375 23.4063,-8.70313 h 0.1875 C 24.2031,-8.90625 24.7031,-9 25.2031,-9 c 1.4063,0 2.5,0.59375 3.2032,1.90625 0.2968,0.59375 0.5,1.09375 0.5,1.6875 0,1.3125 -0.7032,2.60937 -1.6094,3.5"
         transform="matrix(0.992126,0,0,0.992126,752.287,448.228)"
         class="Note"
         inkscape:connector-curvature="0" />
    </g>
  </g>
</svg>
